<svg xmlns="http://www.w3.org/2000/svg" viewBox="0 0 64 64" role="img" aria-labelledby="title desc">
  <title id="title">Иконка проекта полной логистической стоимости</title>
  <desc id="desc">Документ с метками стоимости и монетой</desc>
  <g fill="none" stroke="#1b2f45" stroke-width="2.5" stroke-linecap="round" stroke-linejoin="round">
    <path d="M22 10h18l12 12v26a10 10 0 0 1 -10 10H22a10 10 0 0 1 -10 -10V20a10 10 0 0 1 10 -10z" fill="#f5f8fc" />
    <path d="M40 10v12h12" />
    <path d="M20 28h16M20 36h10" />
    <circle cx="40" cy="44" r="10" fill="#e2f0ff" />
    <path d="M40 37v14m-5 -6h7a3.5 3.5 0 0 0 0 -7h-5" />
    <path d="M26 46h-8l4 6" />
  </g>
</svg>
