<svg xmlns="http://www.w3.org/2000/svg" viewBox="0 0 64 64" role="img" aria-labelledby="title desc">
  <title id="title">Иконка проекта стриминга статусов</title>
  <desc id="desc">Соединённые узлы с направленным потоком из Китая в Россию</desc>
  <g fill="none" stroke="#1b2f45" stroke-width="2.5" stroke-linecap="round" stroke-linejoin="round">
    <rect x="6" y="22" width="18" height="16" rx="3.5" fill="#f4f8fc" />
    <rect x="40" y="22" width="18" height="16" rx="3.5" fill="#f4f8fc" />
    <path d="M24 30h12" />
    <path d="M35 26l7 4 -7 4z" fill="#1b2f45" stroke="#1b2f45" />
    <circle cx="32" cy="30" r="3" fill="#1b2f45" />
    <path d="M12 27h9M12 32h9" />
    <path d="M46 27h6M46 32h6" />
    <path d="M22 17a14 14 0 0 1 20 0" />
    <path d="M42 43a14 14 0 0 1 -20 0" />
    <path d="M18 44l-8 8" />
    <path d="M46 20l8 -8" />
  </g>
</svg>
